<svg width="178" height="70" viewBox="0 0 178 70" fill="none" xmlns="http://www.w3.org/2000/svg">
<path d="M15.3139 33.6879L30.4689 18.5503L45.6239 33.6879L40.0564 50.3713C41.426 50.8271 42.7521 51.3779 44.027 52.0158L51.9013 36.2852H60.779V52.5206L30.469 70L0.158936 52.5206V36.2851H9.03662L16.911 52.0158C18.1858 51.3779 19.5119 50.8271 20.8815 50.3713L15.3139 33.6879Z" fill="white"/>
<path d="M0.916686 17.9375L30.469 0.874981L60.0212 17.9375L60.0212 52.0625L30.469 69.125L0.916686 52.0625L0.916686 17.9375Z" stroke="white" stroke-width="1.5155"/>
<path d="M70.5074 15.3736L73.0486 24.8206H73.0874L76.1523 15.3736H79.1785L82.0494 24.8206H82.0882L84.8428 15.3736H88.8001L84.1251 30H80.2454L77.6848 21.5229H77.646L74.775 30H70.9147L66.5501 15.3736H70.5074ZM99.1229 25.2474V25.616H91.6933C91.6933 26.3402 91.8808 26.8963 92.2559 27.2842C92.6309 27.6593 93.1805 27.8468 93.9047 27.8468C94.2798 27.8468 94.6031 27.7756 94.8747 27.6334C95.1592 27.4911 95.3984 27.2584 95.5924 26.935L98.9871 26.9157C98.7026 28.1054 98.0689 28.9719 97.0861 29.515C96.1162 30.0582 95.0622 30.3298 93.9241 30.3298C92.2817 30.3298 90.9109 29.8836 89.8117 28.9913C88.7124 28.086 88.1628 26.7734 88.1628 25.0534C88.1628 23.3981 88.6736 22.0984 89.6953 21.1543C90.7299 20.2103 92.0554 19.7382 93.672 19.7382C95.4049 19.7382 96.7434 20.2361 97.6874 21.2319C98.6444 22.2277 99.1229 23.5727 99.1229 25.2668V25.2474ZM91.7515 23.5791H95.8446C95.7541 23.1136 95.5148 22.7385 95.1268 22.454C94.7518 22.1695 94.325 22.0272 93.8465 22.0272C93.3293 22.0272 92.8766 22.163 92.4887 22.4346C92.1007 22.6933 91.855 23.0812 91.7515 23.5985V23.5791ZM100.623 30V13.8993H104.154V21.0185C104.503 20.6306 104.923 20.3331 105.415 20.1262C105.919 19.9064 106.43 19.777 106.947 19.7382C106.999 19.7382 107.044 19.7382 107.083 19.7382C107.135 19.7382 107.187 19.7382 107.238 19.7382C108.713 19.7382 109.909 20.2685 110.827 21.3289C111.758 22.3764 112.224 23.6115 112.224 25.034C112.224 26.4695 111.758 27.711 110.827 28.7585C109.896 29.806 108.687 30.3298 107.199 30.3298C107.161 30.3298 107.122 30.3298 107.083 30.3298C107.044 30.3298 107.005 30.3298 106.967 30.3298C106.424 30.3039 105.9 30.1811 105.395 29.9612C104.891 29.7284 104.49 29.3793 104.193 28.9137L104.154 28.8943V30H100.623ZM106.307 22.7838C105.596 22.7967 105.04 23.0295 104.639 23.4821C104.238 23.9218 104.038 24.4456 104.038 25.0534C104.038 25.6871 104.238 26.2173 104.639 26.6441C105.04 27.0708 105.596 27.2842 106.307 27.2842C107.031 27.2842 107.587 27.0708 107.975 26.6441C108.376 26.2173 108.577 25.6871 108.577 25.0534C108.577 24.4456 108.376 23.9218 107.975 23.4821C107.587 23.0295 107.031 22.8032 106.307 22.8032V22.7838ZM117.745 19.583H114.215C114.292 18.833 114.48 18.167 114.777 17.585C115.075 16.9901 115.456 16.4858 115.922 16.0719C116.387 15.6581 116.937 15.3477 117.571 15.1408C118.204 14.921 118.896 14.811 119.646 14.811C120.952 14.811 122.058 15.1796 122.963 15.9167C123.869 16.641 124.321 17.6885 124.321 19.0593C124.321 19.124 124.321 19.1886 124.321 19.2533C124.321 19.3179 124.315 19.3826 124.302 19.4473C124.263 19.9646 124.121 20.4624 123.875 20.9409C123.629 21.4194 123.267 21.7945 122.789 22.066C123.435 22.2342 123.953 22.5963 124.341 23.1524C124.729 23.7084 124.981 24.3098 125.097 24.9564C125.123 25.0857 125.143 25.2215 125.155 25.3638C125.168 25.4931 125.175 25.6224 125.175 25.7517C125.175 27.3553 124.593 28.5645 123.429 29.3793C122.265 30.1811 120.952 30.582 119.491 30.582C118.663 30.582 117.875 30.4591 117.124 30.2134C116.387 29.9677 115.721 29.5474 115.126 28.9525C114.816 28.6292 114.519 28.2412 114.234 27.7886C113.963 27.323 113.756 26.851 113.613 26.3725C113.562 26.1914 113.523 26.0169 113.497 25.8487C113.471 25.6806 113.458 25.5125 113.458 25.3444C113.458 25.3314 113.458 25.3185 113.458 25.3056C113.458 25.2927 113.458 25.2862 113.458 25.2862C113.458 25.2733 113.458 25.2668 113.458 25.2668L117.338 25.2474C117.338 25.8423 117.525 26.3402 117.9 26.7411C118.288 27.142 118.78 27.3424 119.375 27.3424C119.957 27.3424 120.442 27.1678 120.83 26.8187C121.218 26.4566 121.412 25.9781 121.412 25.3832C121.412 24.8271 121.205 24.3615 120.791 23.9865C120.39 23.6115 119.924 23.4239 119.394 23.4239C119.278 23.4239 119.161 23.4369 119.045 23.4627C118.941 23.4886 118.838 23.5145 118.735 23.5403V20.9797H119.123C119.614 20.9927 120.015 20.8569 120.325 20.5724C120.636 20.2879 120.791 19.8934 120.791 19.3891C120.791 18.9364 120.649 18.5808 120.364 18.3222C120.08 18.0506 119.724 17.9148 119.297 17.9148C118.819 17.9148 118.437 18.0764 118.153 18.3997C117.881 18.7101 117.745 19.0981 117.745 19.5636C117.745 19.5636 117.745 19.5701 117.745 19.583C117.745 19.583 117.745 19.5895 117.745 19.6024V19.583ZM68.0826 52V37.3736H73.9021C75.4798 37.3865 76.7601 37.7745 77.743 38.5375C78.7258 39.3005 79.2173 40.5226 79.2173 42.2038C79.2173 43.9238 78.7646 45.1847 77.8594 45.9865C76.967 46.7754 75.6932 47.1698 74.0379 47.1698L71.8847 47.1504V52H68.0826ZM71.8847 40.4385V44.0854H72.5248C73.2102 44.0984 73.8374 44.0337 74.4064 43.8915C74.9755 43.7363 75.26 43.2125 75.26 42.3202C75.26 41.402 74.9884 40.8653 74.4452 40.7101C73.9021 40.542 73.2619 40.4579 72.5248 40.4579L71.8847 40.4385ZM80.8299 35.8993H84.3604V43.3095H84.3992C84.813 42.7793 85.2721 42.3849 85.7765 42.1262C86.2938 41.8676 86.8951 41.7382 87.5806 41.7382C88.8479 41.7382 89.7855 42.1197 90.3933 42.8827C91.0141 43.6457 91.3244 44.6609 91.3244 45.9283V52H87.7939V46.8982C87.7939 46.8982 87.7939 46.8917 87.7939 46.8788C87.7939 46.853 87.7939 46.8271 87.7939 46.8012C87.7939 46.2451 87.6969 45.7343 87.503 45.2687C87.3219 44.7903 86.8887 44.551 86.2033 44.551C85.5308 44.551 85.0588 44.7903 84.7872 45.2687C84.5156 45.7343 84.3733 46.2451 84.3604 46.8012C84.3604 46.8271 84.3604 46.853 84.3604 46.8788C84.3604 46.8917 84.3604 46.9047 84.3604 46.9176V52H80.8299V35.8993ZM97.1853 42.0486V52H93.6548V42.0486H97.1853ZM95.4201 36.2485C95.9632 36.2614 96.4288 36.4619 96.8168 36.8498C97.2047 37.2378 97.3987 37.7034 97.3987 38.2465C97.3987 38.7897 97.2047 39.2552 96.8168 39.6432C96.4288 40.0312 95.9632 40.2252 95.4201 40.2252C94.8769 40.2252 94.4114 40.0312 94.0234 39.6432C93.6354 39.2552 93.4414 38.7897 93.4414 38.2465C93.4414 37.7034 93.6354 37.2378 94.0234 36.8498C94.4114 36.4619 94.8769 36.2679 95.4201 36.2679V36.2485ZM103.039 35.8993V52H99.5085V35.8993H103.039ZM108.893 42.0486V52H105.362V42.0486H108.893ZM107.127 36.2485C107.67 36.2614 108.136 36.4619 108.524 36.8498C108.912 37.2378 109.106 37.7034 109.106 38.2465C109.106 38.7897 108.912 39.2552 108.524 39.6432C108.136 40.0312 107.67 40.2252 107.127 40.2252C106.584 40.2252 106.119 40.0312 105.731 39.6432C105.343 39.2552 105.149 38.7897 105.149 38.2465C105.149 37.7034 105.343 37.2378 105.731 36.8498C106.119 36.4619 106.584 36.2679 107.127 36.2679V36.2485ZM114.63 42.0486V43.1737H114.669C114.966 42.7211 115.367 42.3784 115.871 42.1456C116.376 41.8999 116.899 41.7641 117.443 41.7382C117.481 41.7382 117.52 41.7382 117.559 41.7382C117.598 41.7382 117.637 41.7382 117.675 41.7382C119.163 41.7382 120.372 42.2749 121.303 43.3483C122.234 44.4088 122.7 45.6503 122.7 47.0728C122.7 48.5083 122.234 49.7433 121.303 50.7779C120.385 51.8125 119.188 52.3298 117.714 52.3298C117.662 52.3298 117.611 52.3298 117.559 52.3298C117.52 52.3298 117.475 52.3298 117.423 52.3298C116.906 52.291 116.395 52.1746 115.891 51.9806C115.399 51.7737 114.979 51.4698 114.63 51.0689V56.966H111.099V42.0486H114.63ZM116.783 44.7838C116.072 44.7967 115.516 45.0295 115.115 45.4821C114.714 45.9218 114.513 46.4456 114.513 47.0534C114.513 47.6871 114.714 48.2173 115.115 48.6441C115.516 49.0708 116.072 49.2842 116.783 49.2842C117.507 49.2842 118.063 49.0708 118.451 48.6441C118.852 48.2173 119.053 47.6871 119.053 47.0534C119.053 46.4456 118.852 45.9218 118.451 45.4821C118.063 45.0295 117.507 44.8032 116.783 44.8032V44.7838ZM127.853 42.0486V43.1737H127.891C128.189 42.7211 128.59 42.3784 129.094 42.1456C129.598 41.8999 130.122 41.7641 130.665 41.7382C130.704 41.7382 130.743 41.7382 130.782 41.7382C130.821 41.7382 130.859 41.7382 130.898 41.7382C132.385 41.7382 133.595 42.2749 134.526 43.3483C135.457 44.4088 135.922 45.6503 135.922 47.0728C135.922 48.5083 135.457 49.7433 134.526 50.7779C133.607 51.8125 132.411 52.3298 130.937 52.3298C130.885 52.3298 130.833 52.3298 130.782 52.3298C130.743 52.3298 130.698 52.3298 130.646 52.3298C130.129 52.291 129.618 52.1746 129.113 51.9806C128.622 51.7737 128.202 51.4698 127.853 51.0689V56.966H124.322V42.0486H127.853ZM130.006 44.7838C129.295 44.7967 128.738 45.0295 128.338 45.4821C127.937 45.9218 127.736 46.4456 127.736 47.0534C127.736 47.6871 127.937 48.2173 128.338 48.6441C128.738 49.0708 129.295 49.2842 130.006 49.2842C130.73 49.2842 131.286 49.0708 131.674 48.6441C132.075 48.2173 132.275 47.6871 132.275 47.0534C132.275 46.4456 132.075 45.9218 131.674 45.4821C131.286 45.0295 130.73 44.8032 130.006 44.8032V44.7838ZM141.192 42.0486V52H137.661V42.0486H141.192ZM139.426 36.2485C139.97 36.2614 140.435 36.4619 140.823 36.8498C141.211 37.2378 141.405 37.7034 141.405 38.2465C141.405 38.7897 141.211 39.2552 140.823 39.6432C140.435 40.0312 139.97 40.2252 139.426 40.2252C138.883 40.2252 138.418 40.0312 138.03 39.6432C137.642 39.2552 137.448 38.7897 137.448 38.2465C137.448 37.7034 137.642 37.2378 138.03 36.8498C138.418 36.4619 138.883 36.2679 139.426 36.2679V36.2485ZM147.045 42.0486V43.3289H147.084C147.498 42.734 147.957 42.3202 148.461 42.0874C148.979 41.8546 149.58 41.7382 150.265 41.7382C151.61 41.7382 152.567 42.1197 153.136 42.8827C153.718 43.6457 154.009 44.6415 154.009 45.8701V52H150.479V47.1504C150.479 47.1245 150.479 47.0922 150.479 47.0534C150.479 47.0146 150.479 46.9758 150.479 46.937C150.479 46.8206 150.479 46.6978 150.479 46.5684C150.479 46.4391 150.472 46.3098 150.459 46.1805C150.434 45.7796 150.317 45.411 150.11 45.0748C149.903 44.7256 149.496 44.551 148.888 44.551C148.177 44.551 147.692 44.7838 147.433 45.2494C147.175 45.702 147.045 46.2387 147.045 46.8594V52H143.515V42.0486H147.045ZM166.563 47.2474V47.616H159.133C159.133 48.3402 159.321 48.8963 159.696 49.2842C160.071 49.6593 160.62 49.8468 161.345 49.8468C161.72 49.8468 162.043 49.7756 162.314 49.6334C162.599 49.4911 162.838 49.2584 163.032 48.935L166.427 48.9157C166.142 50.1054 165.509 50.9719 164.526 51.515C163.556 52.0582 162.502 52.3298 161.364 52.3298C159.722 52.3298 158.351 51.8836 157.251 50.9913C156.152 50.086 155.603 48.7734 155.603 47.0534C155.603 45.3981 156.113 44.0984 157.135 43.1543C158.17 42.2103 159.495 41.7382 161.112 41.7382C162.845 41.7382 164.183 42.2361 165.127 43.2319C166.084 44.2277 166.563 45.5727 166.563 47.2668V47.2474ZM159.191 45.5791H163.284C163.194 45.1136 162.955 44.7385 162.567 44.454C162.192 44.1695 161.765 44.0272 161.286 44.0272C160.769 44.0272 160.316 44.163 159.928 44.4346C159.541 44.6933 159.295 45.0812 159.191 45.5985V45.5791ZM175.939 42.359L174.756 44.6092C174.6 44.5316 174.426 44.4605 174.232 44.3958C174.051 44.3312 173.863 44.2794 173.669 44.2406C173.527 44.2148 173.385 44.1954 173.243 44.1824C173.113 44.1566 172.984 44.1436 172.855 44.1436C172.79 44.1436 172.719 44.1501 172.641 44.163C172.577 44.163 172.512 44.176 172.447 44.2018C172.266 44.2406 172.105 44.3118 171.962 44.4152C171.82 44.5057 171.749 44.6415 171.749 44.8226C171.749 45.0424 171.839 45.2106 172.021 45.3269C172.214 45.4304 172.428 45.508 172.661 45.5597C172.79 45.5985 172.913 45.6309 173.029 45.6567C173.146 45.6696 173.249 45.6826 173.34 45.6955C174.167 45.8636 174.853 46.1675 175.396 46.6072C175.952 47.0469 176.23 47.7259 176.23 48.6441C176.23 49.9114 175.764 50.8361 174.833 51.418C173.902 51.9871 172.874 52.291 171.749 52.3298C171.71 52.3298 171.671 52.3298 171.633 52.3298C171.607 52.3298 171.574 52.3298 171.536 52.3298C170.824 52.3298 170.126 52.2328 169.441 52.0388C168.768 51.8448 168.128 51.5668 167.52 51.2047L168.8 48.7217C169.02 48.8898 169.272 49.045 169.557 49.1872C169.841 49.3166 170.132 49.4329 170.43 49.5364C170.637 49.6011 170.837 49.6528 171.031 49.6916C171.225 49.7304 171.413 49.7498 171.594 49.7498C171.645 49.7498 171.697 49.7498 171.749 49.7498C171.814 49.7369 171.878 49.7239 171.943 49.711C172.137 49.6722 172.311 49.5946 172.467 49.4782C172.622 49.3618 172.699 49.2002 172.699 48.9932C172.699 48.7087 172.564 48.5083 172.292 48.3919C172.021 48.2626 171.697 48.1591 171.322 48.0815C171.18 48.0557 171.038 48.0298 170.895 48.0039C170.766 47.9651 170.63 47.9263 170.488 47.8875C169.932 47.7453 169.421 47.4996 168.956 47.1504C168.503 46.7883 168.277 46.1611 168.277 45.2687C168.277 44.066 168.723 43.1802 169.615 42.6112C170.507 42.0421 171.484 41.7512 172.544 41.7382C172.57 41.7382 172.59 41.7382 172.602 41.7382C172.628 41.7382 172.648 41.7382 172.661 41.7382C173.23 41.7382 173.786 41.79 174.329 41.8934C174.885 41.9839 175.422 42.1456 175.939 42.3784V42.359Z" fill="white"/>
</svg>
