<svg width="129" height="51" viewBox="0 0 129 51" fill="none" xmlns="http://www.w3.org/2000/svg">
<path d="M10.9332 24.5535L21.8665 13.6328L32.7998 24.5535L28.7832 36.5894C29.7712 36.9182 30.7279 37.3155 31.6476 37.7757L37.3284 26.4272H43.733V38.1399L21.8665 50.75L0 38.1399V26.4272H6.40461L12.0854 37.7757C13.0051 37.3155 13.9618 36.9182 14.9498 36.5894L10.9332 24.5535Z" fill="#7B3FE4"/>
<path d="M0.546663 13.1906L21.8665 0.881237L43.1864 13.1906L43.1864 37.8094L21.8665 50.1188L0.546663 37.8094L0.546663 13.1906Z" stroke="#7B3FE4" stroke-width="1.09333"/>
<path d="M50.7514 10.9481L52.5847 17.7634H52.6127L54.8238 10.9481H57.007L59.0782 17.7634H59.1062L61.0934 10.9481H63.9483L60.5756 21.5H57.7767L55.9294 15.3844H55.9014L53.8302 21.5H51.0453L47.8965 10.9481H50.7514ZM71.3955 18.0713V18.3372H66.0356C66.0356 18.8597 66.1709 19.2609 66.4414 19.5408C66.712 19.8113 67.1085 19.9466 67.631 19.9466C67.9015 19.9466 68.1348 19.8953 68.3307 19.7927C68.5359 19.69 68.7085 19.5221 68.8485 19.2889L71.2975 19.2749C71.0923 20.1332 70.6351 20.7583 69.9261 21.1501C69.2263 21.542 68.466 21.7379 67.6449 21.7379C66.4601 21.7379 65.4711 21.416 64.6781 20.7723C63.8851 20.1192 63.4886 19.1722 63.4886 17.9314C63.4886 16.7372 63.8571 15.7995 64.5941 15.1185C65.3405 14.4374 66.2968 14.0969 67.463 14.0969C68.7132 14.0969 69.6788 14.4561 70.3599 15.1745C71.0503 15.8928 71.3955 16.8631 71.3955 18.0853V18.0713ZM66.0776 16.8678H69.0304C68.9651 16.5319 68.7925 16.2614 68.5126 16.0561C68.242 15.8509 67.9342 15.7482 67.589 15.7482C67.2158 15.7482 66.8892 15.8462 66.6093 16.0421C66.3295 16.2287 66.1522 16.5086 66.0776 16.8818V16.8678ZM72.478 21.5V9.8845H75.025V15.0205C75.2769 14.7406 75.5801 14.526 75.9347 14.3768C76.2985 14.2182 76.667 14.1249 77.0402 14.0969C77.0775 14.0969 77.1102 14.0969 77.1382 14.0969C77.1755 14.0969 77.2128 14.0969 77.2501 14.0969C78.3137 14.0969 79.1767 14.4794 79.8391 15.2444C80.5109 16.0001 80.8468 16.8911 80.8468 17.9174C80.8468 18.953 80.5109 19.8486 79.8391 20.6043C79.1674 21.3601 78.2951 21.7379 77.2222 21.7379C77.1942 21.7379 77.1662 21.7379 77.1382 21.7379C77.1102 21.7379 77.0822 21.7379 77.0542 21.7379C76.6624 21.7192 76.2845 21.6306 75.9207 21.472C75.5568 21.3041 75.2676 21.0522 75.053 20.7163L75.025 20.7023V21.5H72.478ZM76.5784 16.294C76.0653 16.3033 75.6641 16.4713 75.3749 16.7978C75.0857 17.115 74.941 17.4929 74.941 17.9314C74.941 18.3885 75.0857 18.7711 75.3749 19.0789C75.6641 19.3868 76.0653 19.5408 76.5784 19.5408C77.1009 19.5408 77.502 19.3868 77.7819 19.0789C78.0712 18.7711 78.2158 18.3885 78.2158 17.9314C78.2158 17.4929 78.0712 17.115 77.7819 16.7978C77.502 16.4713 77.1009 16.308 76.5784 16.308V16.294ZM84.8302 13.9849H82.2832C82.3391 13.4438 82.4744 12.9633 82.689 12.5435C82.9036 12.1143 83.1788 11.7504 83.5147 11.4519C83.8506 11.1533 84.2471 10.9294 84.7042 10.7802C85.1614 10.6216 85.6605 10.5422 86.2016 10.5422C87.1439 10.5422 87.9416 10.8081 88.5947 11.3399C89.2478 11.8624 89.5743 12.6181 89.5743 13.6071C89.5743 13.6537 89.5743 13.7004 89.5743 13.747C89.5743 13.7937 89.5697 13.8403 89.5603 13.887C89.5324 14.2601 89.4297 14.6193 89.2525 14.9645C89.0752 15.3097 88.814 15.5803 88.4688 15.7762C88.9352 15.8975 89.3084 16.1587 89.5883 16.5599C89.8682 16.9611 90.0502 17.3949 90.1341 17.8614C90.1528 17.9547 90.1668 18.0527 90.1761 18.1553C90.1854 18.2486 90.1901 18.3419 90.1901 18.4352C90.1901 19.5921 89.7703 20.4644 88.9306 21.0522C88.0909 21.6306 87.1439 21.9198 86.0897 21.9198C85.4926 21.9198 84.9235 21.8312 84.3823 21.6539C83.8506 21.4767 83.3701 21.1735 82.9409 20.7443C82.717 20.5111 82.5024 20.2312 82.2972 19.9046C82.1012 19.5687 81.952 19.2282 81.8493 18.883C81.812 18.7524 81.784 18.6264 81.7654 18.5052C81.7467 18.3839 81.7374 18.2626 81.7374 18.1413C81.7374 18.132 81.7374 18.1226 81.7374 18.1133C81.7374 18.104 81.7374 18.0993 81.7374 18.0993C81.7374 18.09 81.7374 18.0853 81.7374 18.0853L84.5363 18.0713C84.5363 18.5005 84.6716 18.8597 84.9421 19.1489C85.222 19.4381 85.5766 19.5827 86.0057 19.5827C86.4256 19.5827 86.7754 19.4568 87.0553 19.2049C87.3352 18.9437 87.4751 18.5985 87.4751 18.1693C87.4751 17.7681 87.3259 17.4322 87.0273 17.1617C86.7381 16.8911 86.4022 16.7558 86.0197 16.7558C85.9357 16.7558 85.8518 16.7652 85.7678 16.7838C85.6932 16.8025 85.6185 16.8211 85.5439 16.8398V14.9925H85.8238C86.1783 15.0019 86.4675 14.9039 86.6915 14.6986C86.9154 14.4934 87.0273 14.2088 87.0273 13.845C87.0273 13.5184 86.9247 13.2619 86.7194 13.0753C86.5142 12.8793 86.2576 12.7814 85.9497 12.7814C85.6045 12.7814 85.3293 12.898 85.1241 13.1312C84.9281 13.3552 84.8302 13.635 84.8302 13.9709C84.8302 13.9709 84.8302 13.9756 84.8302 13.9849C84.8302 13.9849 84.8302 13.9896 84.8302 13.9989V13.9849ZM49.0021 37.5V26.9481H53.2005C54.3387 26.9574 55.2623 27.2373 55.9714 27.7878C56.6805 28.3382 57.035 29.2199 57.035 30.4327C57.035 31.6736 56.7084 32.5832 56.0554 33.1617C55.4116 33.7308 54.4926 34.0154 53.2984 34.0154L51.745 34.0014V37.5H49.0021ZM51.745 29.1592V31.7902H52.2069C52.7013 31.7995 53.1538 31.7529 53.5643 31.6503C53.9748 31.5383 54.1801 31.1605 54.1801 30.5167C54.1801 29.8543 53.9842 29.4671 53.5923 29.3552C53.2005 29.2339 52.7386 29.1732 52.2069 29.1732L51.745 29.1592ZM58.1984 25.8845H60.7454V31.2304H60.7734C61.0719 30.8479 61.4031 30.5634 61.767 30.3768C62.1402 30.1902 62.574 30.0969 63.0685 30.0969C63.9828 30.0969 64.6592 30.3721 65.0977 30.9226C65.5455 31.473 65.7695 32.2054 65.7695 33.1197V37.5H63.2224V33.8194C63.2224 33.8194 63.2224 33.8148 63.2224 33.8054C63.2224 33.7868 63.2224 33.7681 63.2224 33.7495C63.2224 33.3483 63.1525 32.9798 63.0125 32.6439C62.8819 32.2987 62.5694 32.1261 62.0749 32.1261C61.5897 32.1261 61.2492 32.2987 61.0533 32.6439C60.8574 32.9798 60.7547 33.3483 60.7454 33.7495C60.7454 33.7681 60.7454 33.7868 60.7454 33.8054C60.7454 33.8148 60.7454 33.8241 60.7454 33.8334V37.5H58.1984V25.8845ZM69.9977 30.3208V37.5H67.4507V30.3208H69.9977ZM68.7242 26.1364C69.116 26.1457 69.4519 26.2903 69.7318 26.5702C70.0117 26.8501 70.1516 27.186 70.1516 27.5778C70.1516 27.9697 70.0117 28.3056 69.7318 28.5855C69.4519 28.8653 69.116 29.0053 68.7242 29.0053C68.3323 29.0053 67.9965 28.8653 67.7166 28.5855C67.4367 28.3056 67.2967 27.9697 67.2967 27.5778C67.2967 27.186 67.4367 26.8501 67.7166 26.5702C67.9965 26.2903 68.3323 26.1504 68.7242 26.1504V26.1364ZM74.2206 25.8845V37.5H71.6736V25.8845H74.2206ZM78.4436 30.3208V37.5H75.8966V30.3208H78.4436ZM77.1701 26.1364C77.562 26.1457 77.8978 26.2903 78.1777 26.5702C78.4576 26.8501 78.5976 27.186 78.5976 27.5778C78.5976 27.9697 78.4576 28.3056 78.1777 28.5855C77.8978 28.8653 77.562 29.0053 77.1701 29.0053C76.7783 29.0053 76.4424 28.8653 76.1625 28.5855C75.8826 28.3056 75.7427 27.9697 75.7427 27.5778C75.7427 27.186 75.8826 26.8501 76.1625 26.5702C76.4424 26.2903 76.7783 26.1504 77.1701 26.1504V26.1364ZM82.5826 30.3208V31.1325H82.6106C82.8252 30.8059 83.1144 30.5587 83.4783 30.3908C83.8421 30.2135 84.22 30.1155 84.6118 30.0969C84.6398 30.0969 84.6678 30.0969 84.6958 30.0969C84.7238 30.0969 84.7518 30.0969 84.7798 30.0969C85.8527 30.0969 86.725 30.4841 87.3968 31.2584C88.0685 32.0235 88.4044 32.9191 88.4044 33.9454C88.4044 34.981 88.0685 35.872 87.3968 36.6183C86.7343 37.3647 85.8713 37.7379 84.8078 37.7379C84.7704 37.7379 84.7331 37.7379 84.6958 37.7379C84.6678 37.7379 84.6352 37.7379 84.5978 37.7379C84.2247 37.7099 83.8561 37.626 83.4923 37.486C83.1377 37.3367 82.8345 37.1175 82.5826 36.8283V41.0826H80.0356V30.3208H82.5826ZM84.136 32.294C83.6229 32.3033 83.2217 32.4713 82.9325 32.7978C82.6433 33.115 82.4987 33.4929 82.4987 33.9314C82.4987 34.3885 82.6433 34.7711 82.9325 35.0789C83.2217 35.3868 83.6229 35.5408 84.136 35.5408C84.6585 35.5408 85.0597 35.3868 85.3396 35.0789C85.6288 34.7711 85.7734 34.3885 85.7734 33.9314C85.7734 33.4929 85.6288 33.115 85.3396 32.7978C85.0597 32.4713 84.6585 32.308 84.136 32.308V32.294ZM92.1219 30.3208V31.1325H92.1499C92.3645 30.8059 92.6537 30.5587 93.0175 30.3908C93.3814 30.2135 93.7593 30.1155 94.1511 30.0969C94.1791 30.0969 94.2071 30.0969 94.2351 30.0969C94.2631 30.0969 94.2911 30.0969 94.319 30.0969C95.392 30.0969 96.2643 30.4841 96.936 31.2584C97.6078 32.0235 97.9436 32.9191 97.9436 33.9454C97.9436 34.981 97.6078 35.872 96.936 36.6183C96.2736 37.3647 95.4106 37.7379 94.347 37.7379C94.3097 37.7379 94.2724 37.7379 94.2351 37.7379C94.2071 37.7379 94.1744 37.7379 94.1371 37.7379C93.7639 37.7099 93.3954 37.626 93.0315 37.486C92.677 37.3367 92.3738 37.1175 92.1219 36.8283V41.0826H89.5749V30.3208H92.1219ZM93.6753 32.294C93.1622 32.3033 92.761 32.4713 92.4718 32.7978C92.1825 33.115 92.0379 33.4929 92.0379 33.9314C92.0379 34.3885 92.1825 34.7711 92.4718 35.0789C92.761 35.3868 93.1622 35.5408 93.6753 35.5408C94.1978 35.5408 94.5989 35.3868 94.8788 35.0789C95.168 34.7711 95.3127 34.3885 95.3127 33.9314C95.3127 33.4929 95.168 33.115 94.8788 32.7978C94.5989 32.4713 94.1978 32.308 93.6753 32.308V32.294ZM101.745 30.3208V37.5H99.1981V30.3208H101.745ZM100.472 26.1364C100.863 26.1457 101.199 26.2903 101.479 26.5702C101.759 26.8501 101.899 27.186 101.899 27.5778C101.899 27.9697 101.759 28.3056 101.479 28.5855C101.199 28.8653 100.863 29.0053 100.472 29.0053C100.08 29.0053 99.7439 28.8653 99.464 28.5855C99.1841 28.3056 99.0442 27.9697 99.0442 27.5778C99.0442 27.186 99.1841 26.8501 99.464 26.5702C99.7439 26.2903 100.08 26.1504 100.472 26.1504V26.1364ZM105.968 30.3208V31.2444H105.996C106.295 30.8153 106.626 30.5167 106.99 30.3488C107.363 30.1808 107.797 30.0969 108.291 30.0969C109.261 30.0969 109.952 30.3721 110.362 30.9226C110.782 31.473 110.992 32.1914 110.992 33.0777V37.5H108.445V34.0014C108.445 33.9827 108.445 33.9594 108.445 33.9314C108.445 33.9034 108.445 33.8754 108.445 33.8474C108.445 33.7634 108.445 33.6748 108.445 33.5815C108.445 33.4882 108.44 33.3949 108.431 33.3016C108.412 33.0124 108.329 32.7465 108.179 32.5039C108.03 32.252 107.736 32.1261 107.298 32.1261C106.784 32.1261 106.435 32.294 106.248 32.6299C106.061 32.9564 105.968 33.3436 105.968 33.7914V37.5H103.421V30.3208H105.968ZM120.049 34.0713V34.3372H114.689C114.689 34.8597 114.824 35.2609 115.094 35.5408C115.365 35.8113 115.761 35.9466 116.284 35.9466C116.555 35.9466 116.788 35.8953 116.984 35.7927C117.189 35.69 117.362 35.5221 117.501 35.2889L119.951 35.2749C119.745 36.1332 119.288 36.7583 118.579 37.1501C117.879 37.542 117.119 37.7379 116.298 37.7379C115.113 37.7379 114.124 37.416 113.331 36.7723C112.538 36.1192 112.142 35.1722 112.142 33.9314C112.142 32.7372 112.51 31.7995 113.247 31.1185C113.994 30.4374 114.95 30.0969 116.116 30.0969C117.366 30.0969 118.332 30.4561 119.013 31.1745C119.703 31.8928 120.049 32.8631 120.049 34.0853V34.0713ZM114.731 32.8678H117.683C117.618 32.5319 117.446 32.2614 117.166 32.0561C116.895 31.8509 116.587 31.7482 116.242 31.7482C115.869 31.7482 115.542 31.8462 115.262 32.0421C114.982 32.2287 114.805 32.5086 114.731 32.8818V32.8678ZM126.813 30.5447L125.959 32.1681C125.847 32.1121 125.721 32.0608 125.581 32.0141C125.451 31.9675 125.315 31.9302 125.175 31.9022C125.073 31.8835 124.97 31.8695 124.868 31.8602C124.774 31.8415 124.681 31.8322 124.588 31.8322C124.541 31.8322 124.49 31.8369 124.434 31.8462C124.387 31.8462 124.34 31.8555 124.294 31.8742C124.163 31.9022 124.047 31.9535 123.944 32.0281C123.841 32.0934 123.79 32.1914 123.79 32.322C123.79 32.4806 123.855 32.6019 123.986 32.6859C124.126 32.7605 124.28 32.8165 124.448 32.8538C124.541 32.8818 124.63 32.9051 124.714 32.9238C124.798 32.9331 124.872 32.9424 124.938 32.9518C125.535 33.073 126.029 33.2923 126.421 33.6095C126.822 33.9267 127.023 34.4165 127.023 35.0789C127.023 35.9933 126.687 36.6603 126.015 37.0802C125.343 37.4907 124.602 37.7099 123.79 37.7379C123.762 37.7379 123.734 37.7379 123.706 37.7379C123.687 37.7379 123.664 37.7379 123.636 37.7379C123.123 37.7379 122.619 37.6679 122.125 37.528C121.639 37.388 121.178 37.1875 120.739 36.9262L121.663 35.1349C121.821 35.2562 122.003 35.3682 122.209 35.4708C122.414 35.5641 122.624 35.6481 122.838 35.7227C122.988 35.7693 123.132 35.8067 123.272 35.8346C123.412 35.8626 123.547 35.8766 123.678 35.8766C123.715 35.8766 123.753 35.8766 123.79 35.8766C123.837 35.8673 123.883 35.858 123.93 35.8486C124.07 35.8207 124.196 35.7647 124.308 35.6807C124.42 35.5967 124.476 35.4801 124.476 35.3308C124.476 35.1256 124.378 34.981 124.182 34.897C123.986 34.8037 123.753 34.7291 123.482 34.6731C123.379 34.6544 123.277 34.6358 123.174 34.6171C123.081 34.5891 122.983 34.5611 122.88 34.5332C122.479 34.4305 122.111 34.2533 121.775 34.0014C121.448 33.7401 121.285 33.2876 121.285 32.6439C121.285 31.7762 121.607 31.1371 122.251 30.7266C122.894 30.3161 123.599 30.1062 124.364 30.0969C124.382 30.0969 124.396 30.0969 124.406 30.0969C124.424 30.0969 124.438 30.0969 124.448 30.0969C124.858 30.0969 125.259 30.1342 125.651 30.2088C126.052 30.2741 126.44 30.3908 126.813 30.5587V30.5447Z" fill="#7B3FE4"/>
</svg>
